<svg width="21" height="21" viewBox="0 0 21 21" fill="none" xmlns="http://www.w3.org/2000/svg">
<path d="M14.7111 13C14.5111 12.9 13.2111 12.3 13.0111 12.2C12.8111 12.1 12.6111 12.1 12.4111 12.3C12.2111 12.5 11.8111 13.1 11.6111 13.3C11.5111 13.5 11.3111 13.5 11.1111 13.4C10.4111 13.1 9.71108 12.7 9.11108 12.2C8.61108 11.7 8.11108 11.1 7.71108 10.5C7.61108 10.3 7.71108 10.1 7.81108 9.99998C7.91108 9.89997 8.01108 9.69998 8.21108 9.59998C8.31108 9.49998 8.41108 9.29998 8.41108 9.19998C8.51108 9.09997 8.51108 8.89998 8.41108 8.79998C8.31108 8.69998 7.81108 7.49998 7.61108 6.99998C7.51108 6.29998 7.31108 6.29998 7.11108 6.29998C7.01108 6.29998 6.81108 6.29998 6.61108 6.29998C6.41108 6.29998 6.11108 6.49998 6.01108 6.59998C5.41108 7.19998 5.11108 7.89998 5.11108 8.69998C5.21108 9.59998 5.51108 10.5 6.11108 11.3C7.21108 12.9 8.61108 14.2 10.3111 15C10.8111 15.2 11.2111 15.4 11.7111 15.5C12.2111 15.7 12.7111 15.7 13.3111 15.6C14.0111 15.5 14.6111 15 15.0111 14.4C15.2111 14 15.2111 13.6 15.1111 13.2C15.1111 13.2 14.9111 13.1 14.7111 13ZM17.2111 3.89998C13.3111 -2.43187e-05 7.01108 -2.43187e-05 3.11108 3.89998C-0.0889161 7.09998 -0.688916 12 1.51108 15.9L0.111084 21L5.41108 19.6C6.91108 20.4 8.51108 20.8 10.1111 20.8C15.6111 20.8 20.0111 16.4 20.0111 10.9C20.1111 8.29997 19.0111 5.79998 17.2111 3.89998ZM14.5111 17.9C13.2111 18.7 11.7111 19.2 10.1111 19.2C8.61108 19.2 7.21108 18.8 5.91108 18.1L5.61108 17.9L2.51108 18.7L3.31108 15.7L3.11108 15.4C0.711084 11.4 1.91108 6.39998 5.81108 3.89998C9.71108 1.39998 14.7111 2.69998 17.1111 6.49998C19.5111 10.4 18.4111 15.5 14.5111 17.9Z" fill="#1A1A1A"/>
</svg>
